<?xml version="1.0" encoding="UTF-8"?>
<svg version="1.1" viewBox="0 0 2048 2048" width="1280" height="1280" fill="#7d37ff" xmlns="http://www.w3.org/2000/svg">
<path transform="translate(659,725)" d="m0 0h5l1 13v282l1 21 3 21 5 18 6 16 8 16 9 15 13 16 16 16 19 14 15 9 17 8 18 6 19 4 15 2h30l24-4 15-4 19-7 16-8 17-8 19-10 35-17 29-15 19-9 72-36 5-1h662l3 2 4 20 4 29 2 26 1 39v289l-1 124-2 27-4 28-6 29-7 26-11 32-12 28-14 28-12 20-16 24-12 16-9 11-11 13-11 12-22 22-8 7-12 10-17 13-17 12-17 11-21 12-17 9-29 13-24 9-34 10-32 7-37 6-4 1h-722l-43-7-28-6-28-8-21-7-27-11-31-15-27-16-18-12-19-14-13-11-11-9-5-4v-2l-4-2-24-24-7-8-12-14-13-17-12-17-14-22-12-22-8-16-7-15-11-28-8-25-8-32-6-35-3-31-1-24v-420l2-35 4-30 5-25 7-28 12-36 11-26 13-27 11-19 12-19 10-14 12-16 13-16 3-4h2l2-4 9-9 7-8 4-4h2v-2l8-7 14-13 14-11 13-10 13-9 17-11 24-14 28-14 27-11 33-11 24-6 30-6zm62 479-13 2-12 5-9 6-7 6-9 13-4 10-2 9-1 27v96l1 15 4 15 6 10 9 10 9 7 11 5 11 3h17l12-3 14-7 12-11 7-11 4-10 2-9v-136l-3-12-8-16-8-9-14-9-11-4-13-2zm600 0-13 2-12 5-9 6-7 6-9 13-5 13-1 6-1 24v97l1 17 4 15 6 10 9 10 11 8 12 5 8 2h17l15-4 11-6 12-11 7-11 4-10 2-9v-136l-3-13-6-12-8-10-12-9-11-5-8-2zm-417 360-16 2-12 5-9 6-8 7-9 14-4 11-2 17 3 16 8 16 9 10 9 7 11 5 12 3h256l15-4 11-6 12-11 7-11 5-13 1-5v-18l-4-14-6-11-7-9-9-7-14-7-9-2-9-1z"/>
<path transform="translate(1010)" d="m0 0h813l7 2 30 7 24 8 24 11 22 13 14 10 11 9 11 10 2 1v2l4 2 2 4h2l7 8 12 14 13 19 10 17 12 25 10 30 6 27h2v522l-2 1-5 25-6 21-8 20-10 21-9 15-12 17-9 11-11 12-16 16-11 9-15 11-20 12-16 8-16 7-24 8-22 5-21 3-13 1-700 1-7 2-23 11-200 100-14 5-5 1h-19l-11-3-12-6-10-8-8-10-7-14-2-9-1-12v-772l2-24 4-22 6-23 7-19 8-18 10-18 10-15 8-11 11-13 14-15 12-11 14-11 13-9 20-12 21-10 25-9 28-7 12-2zm77 304-15 2-10 4-10 6-9 8-9 14-4 11-2 17 3 16 8 16 9 10 9 7 11 5 12 3 218 1h286l168-1 15-4 11-6 12-11 7-11 5-13 1-5v-18l-3-12-6-12-8-10-9-7-14-7-9-2-9-1zm1 240-16 2-12 5-9 6-8 7-9 14-4 11-2 17 3 16 8 16 9 10 9 7 11 5 12 3h672l15-4 11-6 12-11 7-11 5-13 1-5v-18l-4-14-6-11-7-9-9-7-14-7-9-2-9-1z"/>
<path transform="translate(176,363)" d="m0 0h17l26 3 19 5 16 6 16 8 14 8 13 10 10 9 7 6v2h2l9 11 9 12 8 13 10 21 7 21 4 20 1 9v35l-3 19-6 22-9 21-10 18-12 16-11 12-11 11-13 10-18 11-16 8-9 4-1 45-1 73-14 20-14 21-12 19-14 26-18 36-2 2-30 8-13 4h-3l-1-2-1-252-12-5-19-10-17-12-13-11-13-13-11-14-10-15-11-22-7-22-4-20-2-20v-10l2-22 4-20 6-19 9-20 10-16 8-11 18-20 8-7 13-10 18-11 19-9 19-6 18-4z"/>
<path transform="translate(1917,1090)" d="m0 0 10 3 15 6 16 8 11 7 12 9 10 9 6 5 7 8 10 12 11 17 11 23 7 21 3 13h2v304l-2 1-5 20-6 17-9 19-7 11-10 14-12 13-11 11-13 10-18 11-16 8-20 7h-2l1-14 3-31 1-20v-453l-3-39-3-25z"/>
<path transform="translate(129,1090)" d="m0 0 3 1-3 24-3 38-1 42v396l1 29 3 38 2 14v5l-7-1-24-10-18-10-17-13-12-11-9-9-11-14-9-14-10-19-7-19-4-16-3-11v-294l2-6 6-23 9-22 9-16 11-16 10-11 7-8 11-10 18-13 18-10 25-10z"/>
<path transform="translate(655,2047)" d="m0 0 4 1z"/>
<path transform="translate(1824)" d="m0 0 3 1z"/>
</svg>
