<?xml version="1.0" encoding="UTF-8"?>
<svg version="1.1" viewBox="0 0 2048 2048" width="1280" height="1280" xmlns="http://www.w3.org/2000/svg">
<path transform="translate(1190,255)" d="m0 0h10l15 2 14 5 11 6 12 9 8 8 10 14 7 16 3 15 1 20v295l367-367 13-10 14-7 14-4 7-1h20l11 2 12 4 15 8 11 9 7 7 7 10 8 16 4 14 1 6v19l-4 18-8 17-12 16h-2l-2 4-234 234h-2l-2 4h-2v2h-2v2h-2l-2 4h-2l-2 4h-2l-2 4h-2l-2 4h-2l-2 4h-2l-2 4h-2v2h-2v2h-2v2h-2v2h-2v2h-2v2h-2v2h-2v2h-2v2h-2v2h-2v2h-2v2h-2v2h-2v2h-2v2h-2v2h-2v2h-2v2h-2v2h-2v2h-2v2h-2v2h-2v2h-2v2h-2v2h-2v2h-2v2h-2v2h-2v2h-2v2h-2v2h-2v2h-2v2h-2v2h-2l-2 4h-2l-2 4h-2l-2 4h-2l-2 4h-2v2h-2v2l-7 6 305 1 18 2 15 5 14 8 10 8 7 7 9 13 7 14 4 16v26l-4 16-8 16-8 11-2 3h-2l-2 4-12 9-16 8-13 4-13 2h-440l-20-2-22-5-21-8-19-10-14-10-13-11-13-13-12-16-10-16-9-20-5-16-4-20-1-9-1-370v-73l2-16 5-16 7-13 9-12 8-8 13-9 13-6 15-4z"/>
<path transform="translate(347,1109)" d="m0 0h417l30 2 19 4 18 6 21 10 14 9 13 10 15 14 9 11 10 14 7 12 8 18 5 15 4 18 2 17v447l-3 16-7 16-9 14-12 12-14 9-11 5-15 4-6 1h-19l-18-4-16-8-10-7-14-14-8-13-6-13-3-14-1-12v-304h-2v2l-8 7-77 77-5 6-6 5-6 7-6 5-6 7h-2l-2 4h-2l-2 4h-2l-2 4h-2l-2 4h-2l-2 4h-2l-2 4h-2l-2 4h-2l-2 4h-2l-2 4h-2l-2 4h-2l-2 4h-2l-2 4h-2l-2 4h-2l-2 4h-2l-2 4h-2l-2 4h-2l-2 4h-2l-2 4h-2l-2 4h-2l-2 4h-2l-2 4h-2l-2 4h-2l-2 4h-2l-2 4h-2l-2 4h-2l-2 4h-2l-2 4-6 5-6 7-8 7-125 125-13 9-15 7-17 4h-24l-16-4-17-8-10-8-7-6-10-13-8-16-4-14-1-6v-20l4-18 8-16 7-10 11-12 359-359-313-1-15-3-13-5-12-7-10-9-9-9-8-13-6-13-3-13-1-8v-10l2-14 5-16 6-11 10-13 8-8 13-9 13-6 16-4z"/>
</svg>
