<?xml version="1.0" encoding="UTF-8"?>
<svg version="1.1" xmlns="http://www.w3.org/2000/svg" width="48" height="48">
<path d="M0 0 C0 0.66 0 1.32 0 2 C1.36125 2.061875 1.36125 2.061875 2.75 2.125 C6 3 6 3 8.3125 5.8125 C11.21445286 11.29396652 11.90915107 16.84872254 11 23 C9.58392295 25.51526973 8.12183189 26.9842597 6 29 C6.61875 29.268125 7.2375 29.53625 7.875 29.8125 C10 31 10 31 12 34 C12 35.98 12 37.96 12 40 C1.44 40 -9.12 40 -20 40 C-20 34 -20 34 -18.125 31.125 C-17.42375 30.42375 -16.7225 29.7225 -16 29 C-15.34 29 -14.68 29 -14 29 C-14.825 28.401875 -15.65 27.80375 -16.5 27.1875 C-19.16490135 24.52259865 -19.41741719 22.40372625 -19.5 18.6875 C-19.15234386 11.88990758 -17.8795541 7.20045358 -13.4375 2 C-8.84514994 -0.67191276 -5.18591889 -0.46119832 0 0 Z " fill="#775447" transform="translate(28,4)"/>
<path d="M0 0 C4.85196676 3.2907661 4.85196676 3.2907661 5.5234375 6.5078125 C5.47445312 7.37148438 5.42546875 8.23515625 5.375 9.125 C5.34148438 9.99382813 5.30796875 10.86265625 5.2734375 11.7578125 C5 14 5 14 4 16 C3.34 16 2.68 16 2 16 C1.8453125 17.6396875 1.8453125 17.6396875 1.6875 19.3125 C1 23 1 23 -0.3125 25 C-2 26 -2 26 -4.0625 26 C-6 25 -6 25 -7.25 22.6875 C-8 20 -8 20 -8 16 C-8.66 16 -9.32 16 -10 16 C-11.71841419 12.56317163 -11.75014695 10.813247 -11 7 C-7.58816939 4.19664874 -3.88805525 2.07657496 0 0 Z " fill="#F8B14A" transform="translate(27,12)"/>
<path d="M0 0 C0.37125 0.969375 0.7425 1.93875 1.125 2.9375 C2.71282132 6.25257824 2.71282132 6.25257824 6 7.0625 C8.93857346 7.27346994 8.93857346 7.27346994 10.75 5.8125 C12.04197926 3.93913007 13.06953338 2.0756563 14 0 C17.41529114 0.2846076 18.78498424 0.79660671 21.3125 3.1875 C23 6 23 6 23 12 C12.44 12 1.88 12 -9 12 C-9 5.83836226 -8.97473389 5.09163783 -5 1 C-3 0 -3 0 0 0 Z " fill="#4EC2F6" transform="translate(17,32)"/>
<path d="M0 0 C3.3 0 6.6 0 10 0 C9.39873418 5.41139241 9.39873418 5.41139241 7.6875 7.9375 C6 9 6 9 3.9375 9 C2 8 2 8 0.75 5.625 C0 3 0 3 0 0 Z " fill="#FD9A07" transform="translate(19,29)"/>
<path d="M0 0 C0.99 0.33 1.98 0.66 3 1 C4.1875 3.5625 4.1875 3.5625 5 6 C6.65 6 8.3 6 10 6 C10.66 4.02 11.32 2.04 12 0 C12.66 0 13.32 0 14 0 C13.65877813 3.07099684 13.11774025 4.8342915 11.3125 7.375 C9 9 9 9 5.9375 9.0625 C3 8 3 8 1.125 5.625 C0 3 0 3 0 0 Z " fill="#1566A0" transform="translate(17,31)"/>
<path d="M0 0 C1.423125 0.2784375 1.423125 0.2784375 2.875 0.5625 C5.89868793 1.28686632 5.89868793 1.28686632 8 0 C7.67 1.32 7.34 2.64 7 4 C5.35 4.33 3.7 4.66 2 5 C1.34 3.35 0.68 1.7 0 0 Z " fill="#F1B353" transform="translate(20,33)"/>
<path d="M0 0 C0.66 0 1.32 0 2 0 C1.50168276 3.68754757 0.89932357 5.60490662 -2 8 C-2.66 7.34 -3.32 6.68 -4 6 C-3.34 6 -2.68 6 -2 6 C-1.34 4.02 -0.68 2.04 0 0 Z " fill="#226DA0" transform="translate(29,31)"/>
</svg>
