<?xml version="1.0" encoding="UTF-8"?>
<svg version="1.1" xmlns="http://www.w3.org/2000/svg" width="50" height="50">
<path d="M0 0 C2.75298627 1.88008819 3.36762115 2.72944332 4.5625 5.75 C4.88134766 8.04003906 4.88134766 8.04003906 4.9765625 10.515625 C5.01523437 11.40507812 5.05390625 12.29453125 5.09375 13.2109375 C5.1246875 14.13132812 5.155625 15.05171875 5.1875 16 C5.22617187 16.93585937 5.26484375 17.87171875 5.3046875 18.8359375 C5.39874844 21.14043054 5.48439399 23.44492013 5.5625 25.75 C3.9125 26.41 2.2625 27.07 0.5625 27.75 C1.18898438 28.07613281 1.81546875 28.40226562 2.4609375 28.73828125 C3.27820313 29.17527344 4.09546875 29.61226562 4.9375 30.0625 C6.15566406 30.70638672 6.15566406 30.70638672 7.3984375 31.36328125 C9.5625 32.75 9.5625 32.75 11.5625 35.75 C11.5625 37.4 11.5625 39.05 11.5625 40.75 C-0.9775 40.75 -13.5175 40.75 -26.4375 40.75 C-25.4375 33.75 -25.4375 33.75 -22.625 31.4375 C-17.17083333 28.55 -17.17083333 28.55 -15.4375 27.75 C-17.9125 26.76 -17.9125 26.76 -20.4375 25.75 C-19.73570453 5.80932865 -19.73570453 5.80932865 -14.8125 -0.25 C-9.83082159 -2.3475488 -4.98896805 -1.8141702 0 0 Z " fill="#000000" transform="translate(32.4375,5.25)"/>
</svg>
