<?xml version="1.0" encoding="UTF-8"?>
<svg version="1.1" viewBox="0 0 2048 2048" width="1280" height="1280" xmlns="http://www.w3.org/2000/svg">
<path transform="translate(160,213)" d="m0 0h19l15 3 14 5 26 11 35 15 45 19 89 38 29 12 30 13 26 11 54 23 35 15 38 16 33 14 108 46 28 12 41 17 44 19 12 5 108 46 31 13 169 72 29 12 30 13 26 11 122 52 24 10 181 77 94 40 125 53 42 18 38 16 21 10 11 8 10 9 9 13 7 14 4 16 1 7v14l-3 16-6 16-9 14-9 10-12 9-25 12-76 32-37 16-43 18-35 15-40 17-26 11-30 13-76 32-42 18-120 51-26 11-45 19-77 33-90 38-42 18-45 19-30 13-43 18-89 38-31 13-32 14-29 12-42 18-252 107-45 19-37 16-130 55-42 18-40 17-15 5-16 3h-12l-17-3-15-6-14-9-11-10-10-13-8-17-4-19v-18l3-14 10-29 7-20 17-48 15-43 10-28 19-54 10-28 18-51 15-43 15-42 18-51 10-29 11-30 10-29 14-39 10-29 15-43 19-53 4-12-2-8-16-46-17-48-19-54-17-47-7-21-17-48-14-40-20-56-16-46-15-42-11-31-10-29-10-27-10-29-16-46-15-42-8-23-8-24-2-10v-17l2-14 6-16 7-11 8-10 7-7 13-9 14-7 11-3zm156 240 3 11 17 48 18 51 15 43 17 48 19 54 9 25 15 43 17 48 19 54 17 48 5 12 11 1h269l7-1 1-1v1l10 1h671l-4-3-31-14-31-13-38-16-70-30-45-19-94-40-160-68-31-13-30-13-92-39-28-12-38-16-200-85-195-83-43-18zm176 656-5 1-10 26-21 60-17 48-14 40-10 27-7 21-17 48-26 74-16 45-19 54-14 39v2l5-1 28-12 209-89 43-18 35-15 94-40 23-10 41-17 49-21 47-20 31-13 53-23 20-8 30-13 43-18 77-33 43-18 35-15 54-23 75-32 19-8 64-27 18-8 3-1v-2z" fill="#020202"/>
<path transform="translate(776,934)" d="m0 0 2 1-2 1z" fill="#D7D7D7"/>
<path transform="translate(890,934)" d="m0 0 2 1z" fill="#D7D7D7"/>
<path transform="translate(888,936)" d="m0 0" fill="#D7D7D7"/>
<path transform="translate(889,935)" d="m0 0" fill="#D7D7D7"/>
<path transform="translate(824,935)" d="m0 0" fill="#D7D7D7"/>
<path transform="translate(663,935)" d="m0 0" fill="#D7D7D7"/>
<path transform="translate(664,934)" d="m0 0" fill="#D7D7D7"/>
<path transform="translate(780,930)" d="m0 0" fill="#D7D7D7"/>
<path transform="translate(705,929)" d="m0 0" fill="#D7D7D7"/>
<path transform="translate(817,928)" d="m0 0" fill="#D7D7D7"/>
<path transform="translate(704,928)" d="m0 0" fill="#D7D7D7"/>
<path transform="translate(1561,205)" d="m0 0" fill="#D7D7D7"/>
<path transform="translate(1509,153)" d="m0 0" fill="#D7D7D7"/>
<path transform="translate(1505,149)" d="m0 0" fill="#D7D7D7"/>
<path transform="translate(1501,145)" d="m0 0" fill="#D7D7D7"/>
</svg>
