<?xml version="1.0" encoding="UTF-8"?>
<svg version="1.1" viewBox="0 0 2048 2048" width="1280" height="1280" xmlns="http://www.w3.org/2000/svg">
<path transform="translate(829)" d="m0 0h390l5 2 25 7 15 7 15 8 12 9 13 11 8 8 11 14 7 11 10 19 6 17 5 21 18 107 5 20 8 19 12 18 4 4v2h2l4 4v2l4 2 10 8 15 9 18 7 18 4 8 1h19l14-2 18-5 80-30 27-10 17-5 18-3 21-1 23 2 21 5 21 8 18 10 14 10 12 11 11 11 11 15 8 13 30 52 16 28 11 19 14 24 16 28 14 24 8 14 14 24 16 28 15 26 13 23 8 16 7 20 4 21 1 11v19l-2 19-6 23-8 19-7 13-11 16-11 12-11 11-11 9-13 11-14 11-10 9-14 11-17 14-14 12-9 9-9 12-9 16-8 24-2 14v22l3 19 7 21 6 11 10 14 9 10 11 10 33 27 17 14 11 9 13 11 11 9 13 13 9 10 12 18 11 23 6 20 3 17 1 10v19l-2 19-5 20-6 16-8 16-6 11-11 19-45 78-14 24-12 21-14 24-8 14-13 22-6 11-30 52-8 13-5 9-12 16-11 12-8 8-18 13-16 9-20 8-19 5-19 3h-28l-22-4-20-6-102-38-17-5-12-2h-28l-20 4-20 8-13 8-10 8-10 9-10 13-8 13-8 20-4 17-9 54-9 53-5 21-8 21-8 15-8 12-9 11-10 11-11 9-11 8-13 8-21 9-23 7-8 2h-389l-1-2-19-5-19-7-18-10-14-10-10-9-14-14-13-18-11-21-6-16-5-21-11-65-8-47-6-21-9-19-10-14-9-10-12-10-13-8-15-7-21-6-9-1h-26l-17 3-24 8-29 11-48 18-30 10-20 4-7 1h-29l-22-4-17-5-18-8-16-9-13-10-15-14-2-4h-2l-13-17-12-20-30-52-14-24-75-130-16-28-14-24-16-28-7-15-6-18-4-19-1-8v-29l4-24 5-17 9-20 11-18 11-13 7-8 13-12 10-8 13-11 9-7 13-11 10-8 17-14 13-11 11-10 12-16 9-17 6-18 3-21v-13l-2-18-5-19-10-21-10-14-5-6-8-7-14-12-16-13-11-9-13-11-10-8-11-9-14-12-12-11-11-12-11-16-7-12-8-20-4-13-3-16-1-7v-29l3-20 6-21 8-18 12-22 8-13 14-25 10-17 30-52 14-24 16-28 15-26 11-19 14-24 16-28 14-24 8-12 9-11 11-12 12-10 18-12 23-11 20-6 19-3 19-1 24 2 25 6 43 16 40 15 30 11 15 4 14 2h18l15-2 14-4 13-5 16-9 9-7 10-9 9-10 9-14 7-15 6-21 18-107 5-22 7-21 10-19 12-17 15-16 10-9 14-10 16-9 17-7 20-6zm28 160-2 6-8 47-10 59-5 22-6 20-8 21-11 23-13 21-10 14-11 13-7 8-20 20-9 7-16 12-21 13-16 8-17 8-33 11-29 6-25 3h-40l-24-3-24-5-26-8-88-33-18-6-6 9-11 20-14 24-9 15-6 11-30 52-16 28-8 13-6 11-30 52-11 19-13 22-6 11-1 4 15 13 11 9 17 14 11 9 13 11 10 8 13 11 12 11 13 13 9 11 10 13 11 17 9 16 10 21 6 15 8 28 5 26 2 17v46l-4 29-6 25-9 27-8 18-10 19-10 16-13 18-10 11v2h-2l-7 8-11 11-11 9-14 12-10 8-13 11-14 11-8 7-11 9-14 11 1 4 12 22 14 24 28 49 15 26 10 17 45 78 14 24 16 28 10 17 2 2 6-1 43-16 45-17 19-7 25-7 21-4 16-2 14-1h25l22 2 24 4 23 6 20 7 19 8 19 10 16 10 19 14 13 11 15 14 7 8 8 9 14 19 8 13 9 16 9 19 8 21 7 26 5 25 16 96 1 4 332 1 4-1 8-47 10-60 6-28 10-30 9-21 14-25 11-16 11-14 12-14 15-15 14-11 10-8 15-10 19-11 21-10 24-9 22-6 21-4 15-2 14-1h27l29 3 29 6 36 12 91 34 4-1 10-17 14-24 12-21 10-17 14-24 13-23 15-26 14-24 45-78 13-23 6-10-1-4-14-11-15-13-14-11-14-12-10-8-16-13-13-12-7-6-5-6h-2l-2-4-11-12-12-16-12-19-12-23-8-19-7-21-6-25-4-27-1-13v-26l3-28 5-26 7-24 8-21 10-21 14-23 11-15 9-11 1-3h2l7-8 2-4 4-2 10-10 11-9 14-12 22-18 13-11 14-11 14-12 5-3-1-5-9-16-14-24-30-52-14-24-16-28-14-24-16-28-10-17-16-28-22-38-4-7-8 1-78 29-28 10-20 6-25 5-25 3h-40l-18-2-25-5-19-5-27-10-21-10-22-13-14-10-16-13-12-11-12-12-7-8-11-14-14-21-10-18-9-19-9-25-7-28-12-69-8-48-1-1z"/>
<path transform="translate(996,629)" d="m0 0h54l29 3 24 4 25 6 26 8 28 11 29 14 22 13 18 12 16 12 16 13 13 12 21 21 9 11 11 13 13 18 11 17 12 21 13 26 12 31 6 19 7 28 5 29 3 30v46l-4 37-5 27-7 26-9 27-11 26-13 26-12 20-11 16-12 16-9 11-9 10-7 8-17 17-8 7-13 11-17 13-15 10-18 11-18 10-23 11-26 10-29 9-27 6-25 4-18 2-16 1h-36l-24-2-27-4-23-5-25-7-26-9-29-13-21-11-26-16-16-12-13-10-15-13-15-14-8-8-7-8-13-15-10-13-12-17-13-21-10-18-12-26-11-29-8-28-6-29-4-29-2-32 1-33 3-28 5-28 7-28 9-27 12-29 10-19 6-11 9-15 8-12 10-14 13-16 9-11 31-31 11-9 15-12 20-14 18-11 16-9 22-11 28-11 25-8 24-6 28-5zm10 161-24 3-25 6-23 8-19 9-20 12-16 12-14 12-16 16-11 14-9 12-9 15-10 19-9 24-6 22-4 23-1 12v29l3 26 6 26 7 20 8 18 8 15 7 11 12 16 12 14 15 15 14 11 15 11 22 12 19 9 18 6 24 6 20 3 12 1h23l21-2 25-5 20-6 20-8 23-12 18-12 14-11 17-16 1-3h2l7-8 13-17 10-16 9-16 8-19 6-18 6-25 3-29v-19l-2-24-5-25-6-20-6-16-8-17-10-17-12-17-12-14-5-6-8-7-7-7-17-13-17-11-23-12-20-8-21-6-26-5-12-1z"/>
<path transform="translate(1221)" d="m0 0 2 1z"/>
</svg>
