<?xml version="1.0" encoding="UTF-8"?>
<svg version="1.1" viewBox="0 0 2048 2048" width="1280" height="1280" xmlns="http://www.w3.org/2000/svg">
<path transform="translate(332)" d="m0 0h1384l35 6 27 6 20 6 25 9 26 12 18 10 19 12 14 10 14 11 14 12 16 15 13 14 9 11 11 14 15 22 11 19 12 23 11 27 8 24 7 30 5 28 2 15v1374l-5 34-6 29-6 21-9 25-9 21-10 19-8 14-12 18-10 14-14 17-12 13-21 21-11 9-18 14-15 10-13 8-18 10-27 13-30 11-30 8-37 7-14 2h-1377l-42-7-22-5-24-7-24-9-16-7-19-10-22-13-20-14-14-11-10-9-8-7-23-23-9-11-12-15-12-17-12-20-12-23-9-20-10-28-8-30-6-34-2-13v-1385l8-44 7-27 10-29 9-20 8-16 10-18 11-17 14-19 9-11 11-12 7-8 10-10 8-7 10-9 13-10 18-13 20-12 24-13 28-12 27-9 24-6 32-6z" fill="#FC5CC8"/>
<path transform="translate(721,593)" d="m0 0h732l9 5 16 12 16 13 14 12 20 20v2h2l9 11 1 3h2l12 16 11 17 6 11 9 17 9 23 7 21 5 22 4 27 1 12v42l-4 34-6 30-8 30-11 33-3 7 12 2 18 5 18 7 3 3 8 4 10 7 6 4v2l4 2 8 8 12 17 8 16 4 11 4 14 2 15v17l-3 23-6 18-4 10-8 15-8 12-11 14-17 17-13 10-14 9-17 9-25 9-19 4-19 2h-29l-8 9-8 10-14 15-13 13-11 9-15 12-15 10-21 12-16 8-18 8-20 8-32 10-27 7-37 8-21 4-3 3-1 64v36l10 4 29 9 25 9 12 5v2l6 1 9 4 23 11 29 15 32 20 10 7 17 12 5 4 10 7v2l4 2 4 3v2l4 2 14 11 6 7 2 1v2h2v2h2v2h2v2h2v2h2v2h2v2h2v2h2v2h2v2h2v2h2v2h2l9 11 5 5v2l3 1 7 9v2h2l13 17 11 15v2l2 1 6 9v2l2 1 6 9 10 17 8 13 9 19 8 16 7 15 6 16 4 12-1 4h-3-5v-1l-63-1h-98v-1l-48 1-2 6v125l-1 12h-606v-96l-1-45-8-1-50-2h-62l-99 2-1-3 9-23 5-10 5-13 15-30 20-34 16-24 12-16 11-14 11-13 7-8 9-10 31-31 14-11 12-11 10-7 10-8 6-4 10-7 20-13 7-4 32-18 21-10 16-8 27-11 37-12 19-6 2-2v-29l-1-50-1-24-13-2-43-9-34-9-36-12-26-11-25-12-20-12-22-16-10-9-8-7-13-12-7-8-10-11-11-14-14 1h-12l-21-2-23-5-22-8-19-10-12-8-16-13-13-12-7-8-10-14-7-11-8-18-5-15-3-14-1-8v-28l4-19 7-19 5-10 8-12 11-12 7-7 13-10 12-7 2-2 10-4 21-7 8-2h9l-4-13-8-23-7-24-6-27-5-33-2-24v-31l3-27 5-26 7-25 8-21 13-27 6-10 10-15 8-11 13-16 11-12 18-18 7-5 5-5h2v-2l5-2v-2l5-2v-2l4-1v-2l4-1v-2z" fill="#F8C5B5"/>
<path transform="translate(387,93)" d="m0 0 4 1 13 8 21 13 21 12 23 12 16 8 25 11 29 11 26 8 26 6 28 5 27 2h33l30-3 30-5 44-10 54-15 53-15 48-12 36-7 35-5 35-3 19-1h49l32 2 28 3 36 6 28 6 30 8 38 13 27 11 26 12 31 16 25 15 27 18 14 10 13 10 17 14 12 11 8 7 17 16 12 12 7 8 12 13 11 14 14 17 9 13 8 11 11 17 8 13 10 17 9 16 11 23 13 29 14 38 10 33 9 39 5 28 4 30 2 21 1 23v44l-3 40-5 38-5 26-7 29-8 28-13 37-12 28-14 29-9 17-3 5-21-8-27-7 2-7 6-18 8-25 7-29 5-28 3-27v-42l-3-28-5-25-7-24-11-28-12-23-5-8-12-18-8-10v-2h-2l-7-9-3-3v-2h-2l-7-8-16-16-11-9-13-11-12-9-13-9-3-1h-732l-15 10-3 1v2l-4 1v2l-4 1v2l-5 2v2l-5 2v2l-4 3h-2l-1 3-10 8-22 22-9 11-12 15-7 11-8 12-6 11-12 25-7 19-7 25-5 26-3 27v31l2 24 5 33 7 31 8 26 7 20 2 10-12 2-21 6-15 6-3-5-12-23-13-27-11-27-12-34-8-28-7-29-5-27-5-38-2-27-1-22v-22l2-41 3-31 4-27 7-35 4-17 1-4-16-8-19-10-16-10-12-9-11-9-10-9-10-11-10-13-12-19-8-15-9-23-6-20-5-24-3-24-1-13v-46l3-40 5-35 7-37 7-31 10-37z" fill="#323A3F"/>
<path transform="translate(1291,1573)" d="m0 0 9 2 9 4 23 11 29 15 32 20 10 7 17 12 5 4 10 7v2l4 2 4 3v2l4 2 14 11 6 7 2 1v2h2v2h2v2h2v2h2v2h2v2h2v2h2v2h2v2h2v2h2v2h2v2h2l9 11 5 5v2l3 1 7 9v2h2l13 17 11 15v2l2 1 6 9v2l2 1 6 9 10 17 8 13 9 19 8 16 7 15 6 16 4 12-1 4h-3-5v-1l-63-1h-98v-1l-48 1-2 6v125l-1 12h-606v-96l-1-45-8-1-50-2h-62l-99 2-1-3 9-23 5-10 5-13 15-30 20-34 16-24 12-16 11-14 11-13 7-8 9-10 31-31 14-11 12-11 10-7 10-8 6-4 10-7 20-13 7-4 32-18 21-10 10-5h5l8 13 12 17 11 13 9 10 10 10 9 7 15 11 20 12 21 10 15 6 30 8 9 2 13 2 15 1h22l15-1 25-4 23-6 22-8 17-8 17-10 16-11 11-9 16-15 14-16 9-12 10-15 5-10z" fill="#7ABECD"/>
<path transform="translate(959,1509)" d="m0 0 21 3 44 3 56 2h22l58-2 45-4 8-1 4 1 1 34 10 4 29 9 25 9 12 5-3 1-1 6-8 13-7 10-12 16-9 9-7 8-14 13-15 11-16 10-12 7-20 9-24 8-22 5-19 3-15 1h-22l-15-1-22-4-30-8-20-8-16-8-17-10-14-10-16-13-15-15-9-11-10-13-10-15-3-6-4-2 27-11 36-12 25-8 2-2 1-35z" fill="#F8C5B5"/>
<path transform="translate(1573,1011)" d="m0 0 1 2 12 2 18 5 18 7 3 3 8 4 10 7 6 4v2l4 2 8 8 12 17 8 16 4 11 4 14 2 15v17l-3 23-6 18-4 10-8 15-8 12-11 14-17 17-13 10-14 9-17 9-25 9-19 4-19 2h-26l-3-1 2-5 12-25 7-20 4-20 2-19 2-33 1-34 3-26 4-16 6-15 9-21 7-15 11-24z" fill="#F4A79B"/>
<path transform="translate(601,1011)" d="m0 0 2 4 10 24 11 24 7 15 8 20 3 11 3 19 4 62 3 37 4 22 5 15 8 18 8 13v3l-14 1h-12l-21-2-23-5-22-8-19-10-12-8-16-13-13-12-7-8-10-14-7-11-8-18-5-15-3-14-1-8v-28l4-19 7-19 5-10 8-12 11-12 7-7 13-10 12-7 2-2 10-4 21-7 8-2h9z" fill="#F4A79B"/>
<path transform="translate(937,1182)" d="m0 0h302l-3 23-3 15-7 21-11 21-12 16-11 12-10 9-13 9-14 8-15 7-21 6-17 3h-28l-22-4-16-5-16-7-16-9-13-10-12-11-9-10-10-14-11-21-6-17-4-18-2-14z" fill="#C07957"/>
<path transform="translate(663,1903)" d="m0 0h62l50 2 8 1 1 1 1 45v26l-1 70h-252l2-20 6-40 6-30 8-30 7-21 4-2z" fill="#FBD3BF"/>
<path transform="translate(1432,1903)" d="m0 0h52l3 1h52l67 1h3 3l9 27 7 24 7 33 5 32 2 19v8h-252v-138l2-6z" fill="#FAD2BE"/>
<path transform="translate(1219,1441)" d="m0 0 3 1-3 3-1 64-1 2-12 1-45 4-59 2h-24l-32-1-54-3-27-3-5-1-1 6h-1l-1-50-1-24 13 1 46 5 44 2h67l36-2 38-4z" fill="#F5A89C"/>
<path transform="translate(1333,1010)" d="m0 0h21l19 3 16 5 16 8 10 8 8 8 6 10 4 10v17l-5 12-9 12-11 9-11 7-18 7-19 4-16 1-14-1-23-5-16-7-13-8-10-9-7-8-5-11-1-4v-15l3-11 7-11 5-6 11-8 9-5 14-6 16-4z" fill="#F5A89C"/>
<path transform="translate(821,1010)" d="m0 0h21l14 2 15 4 12 5 11 6 11 9 9 11 5 11 2 7v12l-6 15-8 10-7 7-16 10-17 7-19 4h-31l-22-5-17-7-11-7-9-7-9-11-6-12-1-6v-10l4-14 7-10 5-6 12-9 14-7 15-5 14-3z" fill="#F5A89C"/>
<path transform="translate(1339,892)" d="m0 0 17 1 16 4 14 7 9 7 9 9 9 15 2 6-1 7-4 6-5 4-9 2-8-4-7-10-6-8-9-7-9-4-11-2-13 1-12 4-9 7-5 6-7 11-8 5h-8l-7-4-4-8v-9l6-12 9-12 10-8 14-8 14-4z" fill="#333A3F"/>
<path transform="translate(824,892)" d="m0 0h14l16 3 16 7 11 7 10 10 9 14 2 5v10l-5 7-6 4h-9l-6-4-6-8-4-7-9-8-8-4-11-3h-13l-11 3-8 4-9 8-8 13-6 5-7 1-10-4-5-8v-7l4-10 7-11 7-8 13-9 13-6 12-3z" fill="#333A3F"/>
<path transform="translate(1039,1013)" d="m0 0 8 1 7 5 2 4 1 72h34l6 2 2 6v17l-2 5-4 1h-57l-10-3-1-1-1-12v-87l3-5z" fill="#F5A89C"/>
<path transform="translate(882,595)" d="m0 0h420l-2 2-17 1-51 1h-286l-47-1-13-1z" fill="#FBD3BF"/>
<path transform="translate(1468,604)" d="m0 0 5 2 16 13 11 9 13 12 15 15v2h2l9 11 1 3h2l12 16 11 17 6 11 9 17 6 15 1 9-4-4-5-11-2-6-4-8-4-9-2-3v-3h-2v-2h-2v-2l-2-1-3-6-6-8v-3h-2v-2h-2l-3-4v-2h-2v-2h-2l-7-10-5-5-6-8-20-20-2-1v-2l-5-2-6-4-10-10-9-7z" fill="#F8CAB7"/>
<path transform="translate(1237,1207)" d="m0 0h1l1 9-6 22-15 30-11 15-7 8-8 7-8 6-7 5h-4l-5 5h-5l4-6 11-7 14-12 7-7 13-17 9-16 7-16 7-23z" fill="#FACCB9"/>
<path transform="translate(881,907)" d="m0 0 5 1 2 1v2h2l4 7 5 4 6 14 2 3-1 14-2 4-11 6-9 1-5-2-6-3-3-6-4-6-3-5-3-2v-2h-2l-4-7 4 1 8 7 4 5 4 7 4 5 4 2h9l4-3h2l2-4 2-3v-10l-6-12-8-10-6-6z" fill="#F9CEBB"/>
<path transform="translate(1432,1903)" d="m0 0h52l3 1h52l67 1v1h-213l-1-2z" fill="#F9E6E0"/>
<path transform="translate(1324,928)" d="m0 0 3 1-4 5-8 8-3 4h-2l-2 5-4 7-5 3-14 1-4-2h-2l-2-2-4-3-2-4v-3l4 2 3 5 6 3h8l8-5 8-13 7-7z" fill="#F9CCB9"/>
<path transform="translate(1365,930)" d="m0 0 9 6 7 8 7 11 8 4 9-2 6-5 5-9h1l1 10-4 5-8 5-10 1-4-2v-2h-6l-4-8-3-3-6-9-6-4z" fill="#FAD1BE"/>
<path transform="translate(714,599)" d="m0 0 2 1-4 5-5 3h-2l-2 5h-2v2l-10 5h-2v2l-6 4-5 5-9 8-3 1 2-4 8-9 7-6h2v-2l5-2v-2l5-2v-2l4-1v-2l4-1v-2l7-5z" fill="#F7C9B6"/>
<path transform="translate(811,928)" d="m0 0 3 1-7 8-6 7-1 2h-2l-2 5-4 6-5 4h-10l2-3 7-3 4-5 7-11 9-8z" fill="#F8CBB8"/>
<path transform="translate(1315,895)" d="m0 0v3l-14 7-9 7-5 4-10 15-5 12-2-1 1-8 6-11 6-9 7-6 9-5 3-3 5-2z" fill="#FACFBC"/>
<path transform="translate(681,1904)" d="m0 0h31v1l-17 2h-80v-1l14-1z" fill="#F8C5B5"/>
<path transform="translate(1365,930)" d="m0 0 9 6 7 8 7 11 5 4-1 1h-6l-4-8-3-3-6-9-6-4z" fill="#FACEBB"/>
<path transform="translate(594,987)" d="m0 0 4 2 5 10v5l-4 2-5-14z" fill="#F8CAB7"/>
<path transform="translate(681,1904)" d="m0 0h31v1l-17 2h-28v-2z" fill="#C2C2BF"/>
<path transform="translate(1394,906)" d="m0 0 5 2 6 8-2 4-10-10z" fill="#FACCB9"/>
<path transform="translate(1315,895)" d="m0 0v3l-14 7-8 5 2-4 7-6 5-2z" fill="#FACCBA"/>
<path transform="translate(1271,948)" d="m0 0 4 2 3 5 5 3-1 2h-3l-2-2-4-3-2-4z" fill="#F8CAB7"/>
<path transform="translate(649,653)" d="m0 0v3l-1 4-8 7-4 2 6-8z" fill="#EEB3A0"/>
<path transform="translate(767,923)" d="m0 0 1 3-5 10-2-2 1-5 3-5z" fill="#F9CBB8"/>
<path transform="translate(630,679)" d="m0 0v3l-7 9h-2l1-4 5-5z" fill="#F8CDBA"/>
<path transform="translate(879,1573)" d="m0 0h4l-1 4-9 1 1-3z" fill="#FACEBB"/>
<path transform="translate(940,1218)" d="m0 0 3 1 1 11h-2l-2-6z" fill="#F9C7B6"/>
<path transform="translate(780,908)" d="m0 0h2l-1 3-7 5-1-2 5-5z" fill="#FAD1BF"/>
<path transform="translate(1413,934)" d="m0 0 4 3-1 9-2 1z" fill="#F7C7B4"/>
<path transform="translate(1454,596)" d="m0 0h5l7 5v2l-4-2-7-3z" fill="#F9C9B7"/>
<path transform="translate(1577,997)" d="m0 0h1l-1 9-2 1-1-7h2z" fill="#F5C3AF"/>
<path transform="translate(1406,921)" d="m0 0h3l2 4v4l-3-1-2-3z" fill="#F9CBB8"/>
</svg>
